<?xml version="1.0" encoding="utf-8"?>
<!-- Generator: Adobe Illustrator 21.0.2, SVG Export Plug-In . SVG Version: 6.00 Build 0)  -->
<svg version="1.1" id="Layer_1" xmlns="http://www.w3.org/2000/svg" xmlns:xlink="http://www.w3.org/1999/xlink" x="0px" y="0px"
	 viewBox="0 0 960 560" style="enable-background:new 0 0 960 560;" xml:space="preserve">
<style type="text/css">
	.st0{fill:#B22746;}
</style>
<g>
	<g>
		<path class="st0" d="M551,374.2c-0.6-3.3-3.8-6-7.1-6h-53.8h-24.8h-41.8c-3.3,0-6.5,2.7-7.1,6l-9.1,51.7c-0.6,3.3,1.7,6,5,6h53
			h24.8h65c3.3,0,5.6-2.7,5-6L551,374.2z"/>
		<path class="st0" d="M597.4,194.5c-1.9,12.8-12.2,28.6-34.5,41.1c6.4-21,7.9-44.7,7.5-64.6c6-2.8,12.3-2.2,19.3,2.2
			C595.8,176.9,598.7,185.1,597.4,194.5 M528.7,196.2l-22.2,16.1c-2.5,1.8-3.8,5.8-2.9,8.8l8.5,26c1,3-0.3,3.9-2.9,2.1l-22.2-16.1
			c-2.5-1.8-6.7-1.8-9.3,0l-22.2,16.1c-2.5,1.8-3.8,0.9-2.9-2.1l8.5-26c1-3-0.3-7-2.9-8.8l-22.2-16.1c-2.5-1.9-2.1-3.4,1.1-3.4h27.4
			c3.1,0,6.5-2.4,7.5-5.4l8.5-26c1-3,2.6-3,3.5,0l8.5,26c1,3,4.3,5.4,7.5,5.4h27.4C530.7,192.8,531.2,194.3,528.7,196.2
			 M367.7,194.5c-1.4-9.3,1.6-17.5,7.7-21.3c6.9-4.3,13.3-5,19.3-2.2c-0.3,19.9,1.1,43.6,7.5,64.6
			C379.9,223,369.6,207.3,367.7,194.5 M601.5,154.1c-10.7-6.6-21.7-8.6-32.3-6.2c-1.1-12.4-2.5-20.4-2.5-20.4h-84.2h-84.2
			c0,0-1.4,8-2.5,20.4c-10.5-2.4-21.6-0.4-32.2,6.2c-13.8,8.6-20.7,25.2-18.1,43.5c4.3,29.7,31.1,55,72.3,69.2
			c1.1,1.3,2.2,2.6,3.4,3.9c7.4,7.9,14.2,14.2,20.3,19.3c5.5,5.8,12.9,16,15.7,31.9c1.6,11.3-12.5,30.2-20.3,33.6
			c-3.4,1.5-4.5,4.2-4.5,4.2h99.9c0,0-1-2.7-4.5-4.2c-7.8-3.5-21.9-22.4-20.3-33.6c2.8-15.6,10-25.8,15.4-31.6
			c6.2-5.1,13.1-11.5,20.7-19.6c1.2-1.2,2.3-2.5,3.3-3.9c41.3-14.2,68-39.5,72.3-69.2C622.2,179.4,615.2,162.7,601.5,154.1"/>
	</g>
	<g>
		<g>
			<path class="st0" d="M273.8,391.3c-0.4-2.3-2.7-4.2-5-4.2h-37.8h-17.5h-29.4c-2.3,0-4.6,1.9-5,4.2l-6.4,36.3
				c-0.4,2.3,1.2,4.2,3.5,4.2h37.2h17.5h45.7c2.3,0,3.9-1.9,3.5-4.2L273.8,391.3z"/>
			<path class="st0" d="M306.4,265c-1.3,9-8.6,20.1-24.3,28.9c4.5-14.8,5.5-31.4,5.3-45.4c4.2-2,8.7-1.5,13.5,1.5
				C305.2,252.7,307.3,258.4,306.4,265 M258.1,266.2l-15.6,11.3c-1.8,1.3-2.7,4.1-2,6.2l5.9,18.3c0.7,2.1-0.2,2.8-2,1.5l-15.6-11.3
				c-1.8-1.3-4.7-1.3-6.5,0l-15.6,11.3c-1.8,1.3-2.7,0.6-2-1.5l5.9-18.3c0.7-2.1-0.2-4.9-2-6.2l-15.6-11.3c-1.8-1.3-1.4-2.4,0.8-2.4
				h19.3c2.2,0,4.6-1.7,5.3-3.8l5.9-18.3c0.7-2.1,1.8-2.1,2.5,0l5.9,18.3c0.7,2.1,3.1,3.8,5.3,3.8h19.2
				C259.5,263.8,259.8,264.9,258.1,266.2 M145,265c-1-6.6,1.1-12.3,5.4-15c4.9-3,9.3-3.5,13.5-1.5c-0.2,14,0.8,30.6,5.3,45.4
				C153.5,285.1,146.3,274,145,265 M309.2,236.7c-7.5-4.6-15.3-6.1-22.7-4.4c-0.8-8.7-1.7-14.4-1.7-14.4h-59.2h-59.2
				c0,0-1,5.6-1.7,14.4c-7.4-1.7-15.2-0.3-22.7,4.4c-9.7,6-14.6,17.7-12.7,30.6c3,20.9,21.8,38.7,50.8,48.6c0.8,0.9,1.5,1.9,2.4,2.7
				c5.2,5.6,10,10,14.3,13.5c3.9,4,9,11.3,11.1,22.4c1.1,7.9-8.8,21.2-14.3,23.6c-2.4,1.1-3.1,2.9-3.1,2.9h70.2c0,0-0.7-1.9-3.1-2.9
				c-5.5-2.4-15.4-15.7-14.3-23.6c2-11,7-18.1,10.9-22.2c4.4-3.6,9.2-8.1,14.6-13.8c0.8-0.9,1.6-1.8,2.3-2.7
				c29-10,47.8-27.7,50.8-48.6C323.8,254.4,318.9,242.7,309.2,236.7"/>
		</g>
	</g>
	<g>
		<g>
			<path class="st0" d="M785.5,391.3c-0.4-2.3-2.7-4.2-5-4.2h-37.8h-17.5h-29.4c-2.3,0-4.6,1.9-5,4.2l-6.4,36.3
				c-0.4,2.3,1.2,4.2,3.5,4.2h37.2h17.5h45.7c2.3,0,3.9-1.9,3.5-4.2L785.5,391.3z"/>
			<path class="st0" d="M818.1,265c-1.3,9-8.6,20.1-24.3,28.9c4.5-14.8,5.5-31.4,5.3-45.4c4.2-2,8.7-1.5,13.5,1.5
				C816.9,252.7,819,258.4,818.1,265 M769.8,266.2l-15.6,11.3c-1.8,1.3-2.7,4.1-2,6.2l5.9,18.3c0.7,2.1-0.2,2.8-2,1.5l-15.6-11.3
				c-1.8-1.3-4.7-1.3-6.5,0l-15.6,11.3c-1.8,1.3-2.7,0.6-2-1.5l5.9-18.3c0.7-2.1-0.2-4.9-2-6.2l-15.6-11.3c-1.8-1.3-1.4-2.4,0.8-2.4
				h19.3c2.2,0,4.6-1.7,5.3-3.8l5.9-18.3c0.7-2.1,1.8-2.1,2.5,0l5.9,18.3c0.7,2.1,3.1,3.8,5.3,3.8H769
				C771.2,263.8,771.5,264.9,769.8,266.2 M656.6,265c-1-6.6,1.1-12.3,5.4-15c4.9-3,9.3-3.5,13.5-1.5c-0.2,14,0.8,30.6,5.3,45.4
				C665.2,285.1,658,274,656.6,265 M820.9,236.7c-7.5-4.6-15.3-6.1-22.7-4.4c-0.8-8.7-1.7-14.4-1.7-14.4h-59.2h-59.2
				c0,0-1,5.6-1.7,14.4c-7.4-1.7-15.2-0.3-22.7,4.4c-9.7,6-14.6,17.7-12.7,30.6c3,20.9,21.8,38.7,50.8,48.6c0.8,0.9,1.5,1.9,2.4,2.7
				c5.2,5.6,10,10,14.3,13.5c3.9,4,9,11.3,11.1,22.4c1.1,7.9-8.8,21.2-14.3,23.6c-2.4,1.1-3.1,2.9-3.1,2.9h70.2c0,0-0.7-1.9-3.1-2.9
				c-5.5-2.4-15.4-15.7-14.3-23.6c2-11,7-18.1,10.9-22.2c4.4-3.6,9.2-8.1,14.6-13.8c0.8-0.9,1.6-1.8,2.3-2.7
				c29-10,47.8-27.7,50.8-48.6C835.5,254.4,830.6,242.7,820.9,236.7"/>
		</g>
	</g>
</g>
</svg>
